<svg xmlns="http://www.w3.org/2000/svg" viewBox="0 0 1080 520" width="1080" height="520" role="img" aria-label="Module Render Sequence">
<defs>
  <linearGradient id="bg" x1="0" y1="0" x2="1" y2="1"><stop offset="0" stop-color="#05080f"/><stop offset="1" stop-color="#10162a"/></linearGradient>
  <filter id="glow" x="-30%" y="-30%" width="160%" height="160%"><feGaussianBlur stdDeviation="4" result="b"/><feMerge><feMergeNode in="b"/><feMergeNode in="SourceGraphic"/></feMerge></filter>
  <marker id="arrow" markerWidth="10" markerHeight="10" refX="8" refY="3" orient="auto"><path d="M0,0 L8,3 L0,6 Z" fill="#46d4e0"/></marker>
</defs>
<rect width="100%" height="100%" rx="18" fill="url(#bg)"/>
<text x="40" y="48" fill="#e8eef8" font-family="Space Grotesk,Segoe UI,Arial" font-size="26" font-weight="700">Module Render Sequence</text>
<text x="40" y="76" fill="#93a1ba" font-family="IBM Plex Mono,Consolas,monospace" font-size="13">navigation mounts content, visuals, formulas, and status labels</text>
<rect x="22" y="110" width="116" height="34" rx="17" fill="#54aeff" opacity="0.16" stroke="#54aeff"/>
<text x="80" y="132" text-anchor="middle" fill="#e8eef8" font-family="IBM Plex Mono,Consolas,monospace" font-size="13" font-weight="700">Reader</text><line x1="80" y1="150" x2="80" y2="450" stroke="#93a1ba" stroke-dasharray="5 7" opacity="0.45"/><rect x="202" y="110" width="116" height="34" rx="17" fill="#54aeff" opacity="0.16" stroke="#54aeff"/>
<text x="260" y="132" text-anchor="middle" fill="#e8eef8" font-family="IBM Plex Mono,Consolas,monospace" font-size="13" font-weight="700">Navigation</text><line x1="260" y1="150" x2="260" y2="450" stroke="#93a1ba" stroke-dasharray="5 7" opacity="0.45"/><rect x="382" y="110" width="116" height="34" rx="17" fill="#54aeff" opacity="0.16" stroke="#54aeff"/>
<text x="440" y="132" text-anchor="middle" fill="#e8eef8" font-family="IBM Plex Mono,Consolas,monospace" font-size="13" font-weight="700">Module</text><line x1="440" y1="150" x2="440" y2="450" stroke="#93a1ba" stroke-dasharray="5 7" opacity="0.45"/><rect x="562" y="110" width="116" height="34" rx="17" fill="#54aeff" opacity="0.16" stroke="#54aeff"/>
<text x="620" y="132" text-anchor="middle" fill="#e8eef8" font-family="IBM Plex Mono,Consolas,monospace" font-size="13" font-weight="700">Scene / Canvas</text><line x1="620" y1="150" x2="620" y2="450" stroke="#93a1ba" stroke-dasharray="5 7" opacity="0.45"/><rect x="742" y="110" width="116" height="34" rx="17" fill="#54aeff" opacity="0.16" stroke="#54aeff"/>
<text x="800" y="132" text-anchor="middle" fill="#e8eef8" font-family="IBM Plex Mono,Consolas,monospace" font-size="13" font-weight="700">Formula Cards</text><line x1="800" y1="150" x2="800" y2="450" stroke="#93a1ba" stroke-dasharray="5 7" opacity="0.45"/><rect x="922" y="110" width="116" height="34" rx="17" fill="#54aeff" opacity="0.16" stroke="#54aeff"/>
<text x="980" y="132" text-anchor="middle" fill="#e8eef8" font-family="IBM Plex Mono,Consolas,monospace" font-size="13" font-weight="700">Status Layer</text><line x1="980" y1="150" x2="980" y2="450" stroke="#93a1ba" stroke-dasharray="5 7" opacity="0.45"/><line x1="80" y1="190" x2="260" y2="190" stroke="#46d4e0" stroke-width="2" marker-end="url(#arrow)" opacity="0.85"/><text x="170" y="182" text-anchor="middle" fill="#93a1ba" font-family="IBM Plex Mono,Consolas,monospace" font-size="12">select module</text><line x1="260" y1="235" x2="440" y2="235" stroke="#46d4e0" stroke-width="2" marker-end="url(#arrow)" opacity="0.85"/><text x="350" y="227" text-anchor="middle" fill="#93a1ba" font-family="IBM Plex Mono,Consolas,monospace" font-size="12">mount chapter</text><line x1="440" y1="280" x2="620" y2="280" stroke="#46d4e0" stroke-width="2" marker-end="url(#arrow)" opacity="0.85"/><text x="530" y="272" text-anchor="middle" fill="#93a1ba" font-family="IBM Plex Mono,Consolas,monospace" font-size="12">build visualization</text><line x1="440" y1="325" x2="800" y2="325" stroke="#46d4e0" stroke-width="2" marker-end="url(#arrow)" opacity="0.85"/><text x="620" y="317" text-anchor="middle" fill="#93a1ba" font-family="IBM Plex Mono,Consolas,monospace" font-size="12">render equations</text><line x1="800" y1="370" x2="980" y2="370" stroke="#46d4e0" stroke-width="2" marker-end="url(#arrow)" opacity="0.85"/><text x="890" y="362" text-anchor="middle" fill="#93a1ba" font-family="IBM Plex Mono,Consolas,monospace" font-size="12">attach validity</text><line x1="980" y1="420" x2="80" y2="420" stroke="#46d4e0" stroke-width="2" marker-end="url(#arrow)" opacity="0.85"/><text x="530" y="412" text-anchor="middle" fill="#93a1ba" font-family="IBM Plex Mono,Consolas,monospace" font-size="12">show status</text></svg>
